<svg xmlns="http://www.w3.org/2000/svg" xmlns:xlink="http://www.w3.org/1999/xlink" viewBox="0 0 323.65 22.52"><defs><style>.cls-1{fill:none;}.cls-2{clip-path:url(#clip-path);}.cls-3{fill:#005487;}</style><clipPath id="clip-path" transform="translate(0)"><rect class="cls-1" width="332.06" height="27.03"/></clipPath></defs><title>Asset 1</title><g id="Layer_2" data-name="Layer 2"><g id="Слой_2" data-name="Слой 2"><g class="cls-2"><path class="cls-3" d="M69.13,13a4,4,0,0,1-3.74,2.71A4.43,4.43,0,0,1,61,11a4.43,4.43,0,0,1,4.39-4.67A4,4,0,0,1,69.13,9L74,6.78a8.76,8.76,0,0,0-8.61-5.42c-5.7,0-10.11,3.88-10.11,9.64s4.42,9.64,10.12,9.64A8.86,8.86,0,0,0,74,15.19Z" transform="translate(0)"/></g><path class="cls-3" d="M81.76,13.2l2.12-6.57L86,13.2ZM80.33,1.66,73.46,20.3h6.12l.73-2.4h7.15l.73,2.4H94.3L87.43,1.66Z" transform="translate(0)"/><polygon class="cls-3" points="107.63 8.26 100.95 8.26 100.95 1.66 95.31 1.66 95.31 20.3 100.95 20.3 100.95 13.18 107.63 13.17 107.63 20.3 113.27 20.3 113.27 1.66 107.63 1.66 107.63 8.26"/><polygon class="cls-3" points="115.28 6.58 120.28 6.58 120.28 20.3 125.93 20.3 125.92 6.58 130.9 6.58 130.9 1.66 115.28 1.66 115.28 6.58"/><polygon class="cls-3" points="132.91 20.3 147.04 20.3 147.04 15.6 138.55 15.6 138.55 13.23 146.85 13.23 146.85 8.54 138.55 8.54 138.55 6.36 147.05 6.36 147.05 1.66 132.91 1.66 132.91 20.3"/><polygon class="cls-3" points="167.24 1.66 160.56 1.66 157.6 6.97 154.59 1.66 147.97 1.66 153.78 10.74 147.55 20.3 154.2 20.3 157.6 14.6 161.01 20.3 167.66 20.3 161.43 10.71 167.24 1.66"/><polygon class="cls-3" points="186.1 1.66 179.2 1.66 174.31 8.65 174.31 1.66 168.66 1.66 168.66 20.3 174.31 20.3 174.31 15.13 175.34 13.73 179.53 20.3 186.41 20.3 179.06 10.32 186.1 1.66"/><g class="cls-2"><path class="cls-3" d="M195.48,15.66A4.41,4.41,0,0,1,191,11,4.48,4.48,0,1,1,200,11a4.41,4.41,0,0,1-4.47,4.67m0-14.3c-5.76,0-10.2,3.91-10.2,9.64s4.44,9.64,10.2,9.64,10.2-3.91,10.2-9.64-4.44-9.64-10.2-9.64" transform="translate(0)"/></g><polygon class="cls-3" points="218.76 11.16 215.49 1.66 207.69 1.66 207.69 20.3 213.34 20.3 213.34 8.53 217.5 20.3 220.01 20.3 224.18 8.53 224.18 20.29 229.82 20.29 229.82 1.66 222.02 1.66 218.76 11.16"/><polygon class="cls-3" points="245.16 20.29 250.8 20.29 250.8 1.66 232.83 1.66 232.84 20.29 238.48 20.29 238.48 6.58 245.16 6.57 245.16 20.29"/><polygon class="cls-3" points="265.45 20.24 271.85 20.24 265.77 1.61 258.67 1.61 252.59 20.24 258.99 20.24 262.22 8.49 265.45 20.24"/><polygon class="cls-3" points="287.79 15.6 279.29 15.6 279.29 13.22 287.59 13.22 287.59 8.53 279.29 8.53 279.29 6.35 287.79 6.35 287.79 1.66 273.65 1.66 273.65 20.29 287.79 20.29 287.79 15.6"/><polygon class="cls-3" points="300.69 10.32 307.73 1.66 300.83 1.66 295.94 8.64 295.94 1.66 290.3 1.66 290.3 20.29 295.94 20.29 295.94 15.12 296.98 13.72 301.17 20.29 308.04 20.29 300.69 10.32"/><polygon class="cls-3" points="308.04 1.66 308.04 6.57 313.04 6.57 313.04 20.29 318.68 20.29 318.68 6.57 323.65 6.57 323.65 1.66 308.04 1.66"/><g class="cls-2"><path class="cls-3" d="M24.39,19.63l1.88,2.52h8l-4.8-6.33Zm7.34-5.48,6.22,8h7.78L36.86,10.31Zm-22.83-4a3,3,0,0,0,.58,2.26h0a3.05,3.05,0,0,0,4.27.62L31.21,0H21L10.1,8.15a3,3,0,0,0-1.19,2M35.92,0,15.43,15.29a5.87,5.87,0,1,1-7-9.4L16.3,0H6.21L4.81,1A11.92,11.92,0,0,0,19,20.2L46.17,0Z" transform="translate(0)"/></g></g></g></svg>